<svg version="1.2" xmlns="http://www.w3.org/2000/svg" viewBox="0 0 16 16" width="16" height="16"><style>.a{fill:none;stroke:#000;stroke-linejoin:round}</style><path class="a" d="m1.5 14.5c0 0 0-1 0-2.2 0-1.9 1.4-6.6 6.5-6.6 4.9 0 6.5 4.3 6.5 6.5 0 1.2 0 2.3 0 2.3 0 0-1.4-0.9-2-2.4-1.1 3.1-3.1 3.6-4.5 0-2 3.6-3.2 2.8-4.5 0-0.6 1.2-2 2.4-2 2.4z"/><path fill-rule="evenodd" class="a" d="m4.4 9.7c0.8-1.5 2.2-2 3.1-0.1"/><path fill-rule="evenodd" class="a" d="m8.5 9.5c0.7-1.8 2.3-1.5 3.2 0.1"/><path fill-rule="evenodd" class="a" d="m9.9 10.1c-0.9 1.8-2.9 1.7-3.8-0.1"/></svg>