<svg version="1.2" xmlns="http://www.w3.org/2000/svg" viewBox="0 0 16 16" width="16" height="16"><style>.a{fill:none;stroke:#000;stroke-linejoin:round}</style><path class="a" d="m1.5 14.5c0 0 0-2.7 0-3.9 0-1.9 1.4-7.1 6.5-7.1 4.9 0 6.5 4.8 6.5 7 0 1.2 0 4 0 4 0 0-1.4-0.9-2-2.4-1.1 3.1-3.1 3.6-4.5 0-2 3.6-3.2 2.8-4.5 0-0.6 1.2-2 2.4-2 2.4z"/><path fill-rule="evenodd" class="a" d="m4.2 7.9c0.9-1.5 1.8-1.5 2.5 0"/><path fill-rule="evenodd" class="a" d="m9.2 7.9c0.9-1.5 1.7-1.4 2.5 0.1"/><path fill-rule="evenodd" class="a" d="m9.5 9.5c-0.9 1.8-2.2 1.7-3.1-0.1"/></svg>