<svg version="1.2" xmlns="http://www.w3.org/2000/svg" viewBox="0 0 16 16" width="16" height="16"><style>.a{fill:none;stroke:#fff;stroke-linejoin:round}.b{fill:none;stroke:#fff;stroke-linecap:round;stroke-linejoin:round}</style><path fill-rule="evenodd" class="a" d="m12.6 8.2c0.9 1.1 0.7 1.1 0.7 2.1 0 1 0 4.2 0 4.2 0 0-1.1-0.7-1.6-1.9-0.9 2.5-2.6 2.9-3.7 0-1.6 2.9-2.6 2.2-3.7 0-0.5 0.9-1.6 1.9-1.6 1.9 0 0 0-3.2 0-4.1 0-0.9-0.4-0.8 0.5-2"/><path class="b" d="m0.9 3.5l7-2.8 7.5 2.7-7.4 2.7z"/><path fill-rule="evenodd" class="b" d="m8 3l6 1.1 0.7 5.9"/><path fill-rule="evenodd" class="b" d="m2.4 3.6l0.1 3.3c0.1 4.2 10.7 3.9 10.7 0l-0.1-3.5"/></svg>